<?xml version="1.0" standalone="no"?>
<!DOCTYPE svg PUBLIC "-//W3C//DTD SVG 20010904//EN"
 "http://www.w3.org/TR/2001/REC-SVG-20010904/DTD/svg10.dtd">
<svg version="1.0" xmlns="http://www.w3.org/2000/svg"
 width="700.000000pt" height="700.000000pt" viewBox="0 0 700.000000 700.000000"
 preserveAspectRatio="xMidYMid meet">
<metadata>
Created by potrace 1.11, written by Peter Selinger 2001-2013
</metadata>
<g transform="translate(0.000000,700.000000) scale(0.100000,-0.100000)"
fill="#000000" stroke="none">
<path d="M3325 5528 c-55 -4 -127 -12 -160 -17 -33 -6 -79 -13 -102 -16 -94
-13 -468 -116 -528 -145 -11 -5 -54 -23 -95 -39 -341 -133 -720 -359 -1080
-645 -63 -50 -120 -95 -126 -101 -6 -5 -46 -41 -90 -80 -100 -88 -319 -307
-404 -404 -150 -171 -227 -295 -267 -431 -49 -166 -10 -356 110 -534 113 -167
422 -488 677 -702 545 -457 1163 -780 1705 -890 11 -2 31 -6 45 -9 53 -11 77
-15 125 -21 28 -4 53 -8 56 -10 10 -6 224 -17 314 -17 84 0 252 10 295 18 14
2 45 6 70 9 219 26 584 139 842 260 42 20 79 36 81 36 8 0 279 151 363 202
168 103 490 334 554 398 3 3 34 30 70 60 140 118 357 330 479 469 152 174 220
283 267 426 29 89 27 239 -4 326 -34 95 -115 244 -152 279 -3 3 -41 47 -84 98
-304 362 -797 771 -1231 1022 -177 102 -505 255 -645 300 -425 138 -738 183
-1085 158z m430 -782 c485 -109 860 -468 975 -935 31 -124 32 -130 35 -281 8
-299 -74 -558 -251 -792 -92 -122 -238 -257 -347 -319 -137 -79 -307 -147
-408 -164 -24 -4 -53 -10 -64 -12 -37 -10 -333 -12 -367 -3 -18 5 -52 11 -76
14 -24 3 -47 8 -51 10 -4 3 -18 7 -32 9 -42 8 -152 49 -219 82 -310 150 -555
429 -655 745 -41 131 -44 141 -52 200 -10 72 -10 331 0 395 86 535 500 958
1032 1055 122 23 371 20 480 -4z"/>
<path d="M3470 4262 c-177 -17 -261 -45 -390 -129 -365 -235 -453 -738 -190
-1088 187 -251 521 -365 814 -280 66 19 197 83 246 119 135 102 242 258 287
421 14 54 29 195 20 195 -3 0 -19 -12 -34 -26 -90 -83 -279 -123 -402 -83
-103 33 -209 116 -258 201 -78 134 -80 303 -5 442 33 60 108 138 159 165 41
21 40 22 -37 42 -51 13 -172 25 -210 21z"/>
</g>
</svg>
